<?xml version="1.0" encoding="UTF-8"?>
<svg width="182px" height="118px" viewBox="0 0 182 118" version="1.1" xmlns="http://www.w3.org/2000/svg" xmlns:xlink="http://www.w3.org/1999/xlink">
    <title>Group</title>
    <defs>
        <linearGradient x1="80.396218%" y1="30.3749291%" x2="0%" y2="75.2987843%" id="linearGradient-1">
            <stop stop-color="#D8338A" offset="0%"></stop>
            <stop stop-color="#FFDF46" offset="100%"></stop>
        </linearGradient>
    </defs>
    <g id="Page-1" stroke="none" stroke-width="1" fill="none" fill-rule="evenodd">
        <g id="Group" transform="translate(0.151959, 0.000000)" fill-rule="nonzero">
            <g id="abibas" fill="#FFFFFF">
                <path d="M98.3480414,8.6 C103.068041,5.86 107.888041,3.06 113.158041,0 C127.968041,25.95 142.718041,51.79 157.858041,78.34 C151.038041,78.34 144.898041,78.4 138.758041,78.26 C138.018041,78.24 137.048041,77.34 136.618041,76.6 C123.828041,54.13 111.088041,31.63 98.3480414,9.13 C98.2980414,9.05 98.3480414,8.91 98.3480414,8.59 L98.3480414,8.6 Z" id="Path"></path>
                <path d="M79.8080414,25.45 C85.0780414,22.4 89.8880414,19.61 94.8880414,16.71 C106.608041,37.15 118.258041,57.47 130.228041,78.35 C123.568041,78.35 117.528041,78.4 111.488041,78.28 C110.708041,78.26 109.628041,77.53 109.218041,76.82 C99.4280414,59.83 89.7180414,42.8 79.7980414,25.45 L79.8080414,25.45 Z" id="Path"></path>
                <path d="M102.758041,78.34 C96.2080414,78.34 90.2480414,78.42 84.3080414,78.26 C83.3480414,78.23 82.0480414,77.31 81.5280414,76.42 C75.0380414,65.26 68.6680414,54.02 62.0380414,42.41 C67.0080414,39.51 71.8680414,36.67 77.0680414,33.64 C85.5880414,48.46 93.9880414,63.08 102.758041,78.34 Z" id="Path"></path>
                <path d="M58.8880414,49.59 C64.3780414,59.09 69.6980414,68.32 75.4880414,78.35 C71.0180414,78.35 67.0980414,77.91 63.2980414,78.45 C56.9980414,79.34 53.1780414,77.28 50.8680414,71.14 C49.1880414,66.68 46.3380414,62.66 43.8680414,58.18 C48.8680414,55.32 53.6880414,52.57 58.8780414,49.6 L58.8880414,49.59 Z" id="Path"></path>
                <path d="M48.1880414,78.34 C41.5980414,78.34 35.5480414,78.57 29.5380414,78.17 C28.0880414,78.07 26.7780414,75.88 24.8480414,74.15 C30.3580414,70.91 35.2080414,68.07 40.4380414,65 C42.9780414,69.37 45.4280414,73.59 48.1880414,78.33 L48.1880414,78.34 Z" id="Path"></path>
                <path d="M61.8780414,87.1 L67.3980414,87.1 L67.3980414,95.23 C69.1980414,94.66 70.5380414,94.06 71.9380414,93.82 C76.7680414,92.97 81.5280414,95.18 84.0480414,99.32 C86.5080414,103.36 86.3980414,108.73 83.7880414,112.36 C80.8080414,116.5 75.9680414,118.09 70.9780414,117.08 C68.1180414,116.5 65.1280414,116.58 61.8780414,116.35 L61.8780414,87.11 L61.8780414,87.1 Z M67.5779382,105.76 C67.5980414,109.31 70.6480414,112.45 74.0980414,112.470097 C77.5880414,112.49 80.6780414,109.41 80.7480414,105.83 C80.8280414,102.04 77.7380414,98.92 73.9880414,98.99 C70.4480414,99.06 67.5580414,102.11 67.5779382,105.76 L67.5779382,105.76 Z" id="Shape"></path>
                <path d="M27.0880414,116.22 L27.0880414,87.13 L32.7280414,87.13 L32.7280414,93.99 C36.9680414,94.22 40.9980414,93.65 44.4480414,94.8 C49.9180414,96.63 52.5380414,103.2 50.9480414,108.72 C49.3180414,114.38 43.9580414,117.84 38.0680414,117.17 C34.5580414,116.77 31.0280414,116.55 27.0880414,116.22 L27.0880414,116.22 Z M46.2080414,105.74 C46.2380414,102.05 43.2980414,99.02 39.6680414,98.99 C36.0380414,98.96 33.0680414,101.94 33.0380414,105.64 C33.0080414,109.26 36.0480414,112.44 39.5680414,112.47 C43.0480414,112.5 46.1780414,109.33 46.2080414,105.74 Z" id="Shape"></path>
                <path d="M111.528041,94.4 L111.528041,116.12 C107.308041,116.61 103.118041,117.49 98.9380414,117.480084 C93.9680414,117.47 90.1680414,114.9 88.1680414,110.19 C86.2280414,105.61 87.0580414,101.28 90.3380414,97.68 C93.7180414,93.96 97.9180414,93.04 102.918041,94.29 C105.568041,94.95 108.518041,94.41 111.528041,94.41 L111.528041,94.4 Z M105.748141,105.4 C105.768041,101.77 102.768041,98.77 99.1080414,98.75 C95.5380414,98.72 92.3480414,101.81 92.3180414,105.33 C92.2880414,108.82 95.4580414,111.96 99.0280414,111.9801 C102.698041,112 105.728041,109.03 105.748141,105.41 L105.748141,105.4 Z" id="Shape"></path>
                <path d="M24.3480414,94.54 L24.3480414,116.02 C24.1180414,116.22 23.9380414,116.52 23.7480414,116.52 C19.8380414,116.64 15.9680414,116.71 12.0380414,117.19 C7.20804136,117.78 3.40804136,115.05 1.28804136,110.67 C-0.831958639,106.29 -0.311958639,101.88 2.67804136,98.03 C5.71804136,94.12 9.93804136,93.22 14.6980414,93.84 C17.8180414,94.24 20.9880414,94.31 24.3380414,94.54 L24.3480414,94.54 Z M18.4480414,105.36 C18.4480414,101.57 15.6580414,98.75 11.8980414,98.74 C8.22804136,98.74 5.26804136,101.69 5.26804136,105.37 C5.26804136,109.05 8.22804136,112 11.9080414,111.980101 C15.6780414,111.97 18.4480414,109.16 18.4480414,105.36 L18.4480414,105.36 Z" id="Shape"></path>
                <path d="M113.978041,109.6 C116.668041,109.57 119.178041,108.46 121.028041,111.84 C121.558041,112.81 125.048041,112.23 127.168041,112.14 C127.508041,112.13 128.178041,110.83 128.018041,110.35 C127.788041,109.67 127.018041,108.89 126.338041,108.7 C124.198041,108.12 121.978041,107.88 119.818041,107.36 C116.648041,106.59 114.298041,104.7 114.218041,101.29 C114.128041,97.64 116.228041,95.38 119.768041,94.3 C126.338041,92.31 132.028041,94.92 133.348041,100.97 C130.968041,100.97 128.678041,102.49 126.788041,99.17 C126.218041,98.18 122.998041,98.71 120.998041,98.55 C121.048041,99.58 120.768041,101.27 121.228041,101.51 C122.598041,102.23 124.248041,102.54 125.818041,102.71 C131.608041,103.32 134.288041,105.65 134.138041,110.13 C133.988041,114.58 131.018041,117.04 125.448041,117.32 C119.698041,117.62 115.568041,115.65 114.208041,111.9 C113.968041,111.24 114.048041,110.47 113.968041,109.59 L113.978041,109.6 Z" id="Path"></path>
                <polygon id="Path" points="58.7980414 116.44 53.2480414 116.44 53.2480414 94.47 58.7980414 94.47"></polygon>
                <polygon id="Path" points="58.6380414 92.12 53.2580414 92.12 53.2580414 87.15 58.6380414 87.15"></polygon>
            </g>
            <path d="M154.004041,117 L156.308041,112.5 L161.816041,101.7 L167.324041,112.5 L169.628041,117 L174.668041,117 L172.364041,112.5 L161.816041,91.8 L151.268041,112.5 L148.964041,117 L154.004041,117 Z M181.328041,117 L181.328041,91.8 L176.828041,91.8 L176.828041,117 L181.328041,117 Z" id="AI" fill="url(#linearGradient-1)"></path>
            <polygon id="." fill="#FFFFFF" points="143.598041 117.252 143.598041 112.752 139.098041 112.752 139.098041 117.252"></polygon>
        </g>
    </g>
</svg>